<svg id="Layer_1" data-name="Layer 1" xmlns="http://www.w3.org/2000/svg" viewBox="0 0 64 52"><title>icon-twitter</title><g id="twitter"><path d="M64,12.2a23.1,23.1,0,0,1-7.3,2.1,14.12,14.12,0,0,0,5.5-7.2C60.3,8.3,56.1,10,54,10h0a13.78,13.78,0,0,0-9.6-4A13.19,13.19,0,0,0,31.2,19.2a13.58,13.58,0,0,0,.3,2.9h0c-9.9-.3-21.5-5.2-28-13.7a13.21,13.21,0,0,0,4,17.4c-1.5.2-4.4-.1-5.7-1.4C1.7,29,3.9,35.1,12,37.3c-1.6.8-4.3.6-5.5.4.4,3.9,5.9,9,11.8,9C16.2,49.1,9,53.6,0,52.2A39.83,39.83,0,0,0,20.7,58a36.8,36.8,0,0,0,37-38.6v-.5A22.86,22.86,0,0,0,64,12.2Z" transform="translate(0 -6)"/></g></svg>